#tb 0: 1/25
#tb 1: 1/25
0,          0,          0,        1,   114063, 0x8c5b14ee
1,          0,          0,        1,   114063, 0x463902fa
0,          1,          1,        1,   114063, 0x11cdf5eb
1,          1,          1,        1,   114063, 0xfa50fd41
0,          2,          2,        1,   114063, 0xbaa9720e
1,          2,          2,        1,   114063, 0x3e3c1235
0,          3,          3,        1,   114063, 0xb6680573
1,          3,          3,        1,   114063, 0x8b6a0936
0,          4,          4,        1,   114063, 0x67e44599
1,          4,          4,        1,   114063, 0x17c4fea3
0,          5,          5,        1,   114063, 0x17163a34
1,          5,          5,        1,   114063, 0xbdaffc9c
0,          6,          6,        1,   114063, 0x994cabb9
1,          6,          6,        1,   114063, 0xd1895e54
0,          7,          7,        1,   114063, 0x8f2477d1
1,          7,          7,        1,   114063, 0xf0f4a1c5
0,          8,          8,        1,   114063, 0xbd237db1
1,          8,          8,        1,   114063, 0x1129905f
0,          9,          9,        1,   114063, 0x42695c48
1,          9,          9,        1,   114063, 0x75136ab7
0,         10,         10,        1,   114063, 0x86a76ab6
1,         10,         10,        1,   114063, 0x62b76a94
0,         11,         11,        1,   114063, 0x85d9e978
1,         11,         11,        1,   114063, 0xb9d5a147
0,         12,         12,        1,   114063, 0x175e5e20
1,         12,         12,        1,   114063, 0x4c46dd2b
0,         13,         13,        1,   114063, 0xb166b5f9
1,         13,         13,        1,   114063, 0x11b47a14
0,         14,         14,        1,   114063, 0xd4aeadae
1,         14,         14,        1,   114063, 0x1d0c6e19
